<svg xmlns="http://www.w3.org/2000/svg" version="1.1" xmlns:xlink="http://www.w3.org/1999/xlink" xmlns:svgjs="http://svgjs.dev/svgjs" width="1500" height="1500" viewBox="0 0 1500 1500"><rect width="1500" height="1500" fill="#ffffff"></rect><g transform="matrix(0.6666666666666666,0,0,0.6666666666666666,249.67521800367473,426.2623481781377)"><svg viewBox="0 0 381 247" data-background-color="#ffffff" preserveAspectRatio="xMidYMid meet" height="972" width="1500" xmlns="http://www.w3.org/2000/svg" xmlns:xlink="http://www.w3.org/1999/xlink"><g id="tight-bounds" transform="matrix(1,0,0,1,0.1237419405999276,-0.09999999999999432)"><svg viewBox="0 0 380.75251611880014 247.2" height="247.2" width="380.75251611880014"><g><svg viewBox="0 0 395.52 256.7876504051613" height="247.2" width="380.75251611880014"><g transform="matrix(1,0,0,1,0,158.70506976)"><svg viewBox="0 0 395.52 98.08258064516129" height="98.08258064516129" width="395.52"><g id="textblocktransform"><svg viewBox="0 0 395.52 98.08258064516129" height="98.08258064516129" width="395.52" id="textblock"><g><svg viewBox="0 0 395.52 98.08258064516129" height="98.08258064516129" width="395.52"><g transform="matrix(1,0,0,1,0,0)"><svg width="395.52" viewBox="1.85 -38 198.38 49.2" height="98.08258064516129" data-palette-color="#096a2e"><path d="M16 0.6L16 0.6Q13.28 0.6 10.75-0.51 8.22-1.63 6.21-3.89 4.2-6.15 3.03-9.65 1.85-13.15 1.85-17.9L1.85-17.9Q1.85-23.6 3.84-27.51 5.83-31.43 9.16-33.44 12.5-35.45 16.55-35.45L16.55-35.45Q19.3-35.45 21.04-34.93 22.78-34.4 23.81-33.68 24.85-32.95 25.5-32.35L25.5-32.35 22.7-27.1Q21.63-28.28 20.48-28.99 19.33-29.7 16.8-29.7L16.8-29.7Q14.25-29.7 12.46-28.23 10.68-26.75 9.74-24.16 8.8-21.58 8.8-18.25L8.8-18.25Q8.8-11.73 10.99-8.41 13.18-5.1 16.25-5.1L16.25-5.1Q18.63-5.1 20.3-5.78 21.98-6.45 22.8-7.3L22.8-7.3 25.55-2.35Q24.85-1.78 23.69-1.09 22.53-0.4 20.66 0.1 18.8 0.6 16 0.6ZM39.95 0.5L39.95 0.5Q34.45 0.5 31.45-2.95 28.45-6.4 28.45-12.5L28.45-12.5Q28.45-18.65 31.55-22.08 34.65-25.5 40.15-25.5L40.15-25.5Q45.67-25.5 48.56-21.96 51.45-18.43 51.45-12.5L51.45-12.5Q51.45-6.58 48.46-3.04 45.47 0.5 39.95 0.5ZM40.05-4.5L40.05-4.5Q44.8-4.5 44.8-12.5L44.8-12.5Q44.8-20.55 40.05-20.55L40.05-20.55Q37.7-20.55 36.4-18.69 35.1-16.82 35.1-12.5L35.1-12.5Q35.1-8.2 36.4-6.35 37.7-4.5 40.05-4.5ZM63.25 0L57 0 57-24.9 62.65-24.9 62.95-20.5Q63.34-21.48 64.18-22.58 65.02-23.68 66.51-24.44 68-25.2 70.34-25.2L70.34-25.2Q71.07-25.2 71.62-25.1 72.17-25 72.65-24.8L72.65-24.8 71.25-18.25Q70.45-19.05 68.8-19.05L68.8-19.05Q66.87-19.05 65.65-18.26 64.42-17.48 63.83-16.5 63.25-15.53 63.25-15L63.25-15 63.25 0ZM85.94 0.65L85.94 0.65Q81.74 0.65 79.17-1.11 76.59-2.88 75.42-5.79 74.24-8.7 74.24-12.15L74.24-12.15Q74.24-15.78 75.58-18.81 76.92-21.85 79.51-23.68 82.09-25.5 85.84-25.5L85.84-25.5Q91.44-25.5 93.67-22.26 95.89-19.03 95.89-13.1L95.89-13.1Q95.89-12.58 95.87-11.78 95.84-10.98 95.79-10.4L95.79-10.4 80.79-10.4Q80.94-7.45 82.46-5.78 83.97-4.1 86.99-4.1L86.99-4.1Q88.54-4.1 90.32-4.79 92.09-5.48 92.94-6.45L92.94-6.45 94.94-1.7Q93.94-1.03 91.78-0.19 89.62 0.65 85.94 0.65ZM80.74-14.3L80.74-14.3 89.54-14.3Q89.54-16.93 89.08-18.31 88.62-19.7 87.82-20.23 87.02-20.75 85.99-20.75L85.99-20.75Q83.44-20.75 82.17-18.86 80.89-16.98 80.74-14.3ZM121.24 0L111.79 0 111.79-34.85 121.09-34.85Q127.24-34.85 130.04-32.41 132.84-29.98 132.84-25.55L132.84-25.55Q132.84-23.58 131.89-21.53 130.94-19.48 128.76-18.45L128.76-18.45Q131.74-17.73 133.16-15.55 134.59-13.38 134.59-10.05L134.59-10.05Q134.59-5.45 131.44-2.73 128.29 0 121.24 0L121.24 0ZM121.09-29.9L121.09-29.9 118.09-29.9 118.09-20.25 122.14-20.25Q123.84-20.25 124.83-21.06 125.81-21.88 126.23-23.06 126.64-24.25 126.64-25.35L126.64-25.35Q126.64-27.15 125.85-28.14 125.06-29.13 123.79-29.51 122.51-29.9 121.09-29.9ZM121.64-15.6L121.64-15.6 118.09-15.6 118.09-5.05 121.94-5.05Q123.44-5.05 124.83-5.45 126.21-5.85 127.1-7 127.99-8.15 127.99-10.4L127.99-10.4Q127.99-12.68 127.05-13.79 126.11-14.9 124.65-15.25 123.19-15.6 121.64-15.6ZM145.89 0L139.79 0 139.79-38 145.89-38 145.89 0ZM162.28 0.5L162.28 0.5Q156.78 0.5 153.78-2.95 150.78-6.4 150.78-12.5L150.78-12.5Q150.78-18.65 153.88-22.08 156.98-25.5 162.48-25.5L162.48-25.5Q168.01-25.5 170.9-21.96 173.78-18.43 173.78-12.5L173.78-12.5Q173.78-6.58 170.8-3.04 167.81 0.5 162.28 0.5ZM162.38-4.5L162.38-4.5Q167.13-4.5 167.13-12.5L167.13-12.5Q167.13-20.55 162.38-20.55L162.38-20.55Q160.03-20.55 158.73-18.69 157.43-16.82 157.43-12.5L157.43-12.5Q157.43-8.2 158.73-6.35 160.03-4.5 162.38-4.5ZM180.23 9L183.03 4.3Q183.93 4.85 185.22 5.3 186.5 5.75 188.23 5.75L188.23 5.75Q191.43 5.75 193.03 4.09 194.63 2.43 194.63-1.2L194.63-1.2 194.63-5.1Q194.28-3.83 193.53-2.58 192.78-1.33 191.47-0.51 190.16 0.3 188.13 0.3L188.13 0.3Q185.31 0.3 183.02-0.99 180.73-2.27 179.38-5.08 178.03-7.88 178.03-12.4L178.03-12.4Q178.03-17 179.37-19.89 180.7-22.78 182.97-24.14 185.23-25.5 187.98-25.5L187.98-25.5Q191.06-25.5 192.68-23.95 194.31-22.4 194.63-20.6L194.63-20.6 195.33-24.9 200.23-24.9 200.23-1.2Q200.23 4.53 197.34 7.86 194.45 11.2 188.83 11.2L188.83 11.2Q185.81 11.2 183.58 10.44 181.35 9.68 180.23 9L180.23 9ZM189.38-4.6L189.38-4.6Q191.56-4.6 192.79-6.66 194.03-8.72 194.03-12.5L194.03-12.5Q194.03-16.07 192.95-18.26 191.88-20.45 189.58-20.45L189.58-20.45Q188.31-20.45 187.14-19.69 185.98-18.93 185.23-17.18 184.48-15.43 184.48-12.45L184.48-12.45Q184.48-8.4 185.87-6.5 187.25-4.6 189.38-4.6Z" opacity="1" transform="matrix(1,0,0,1,0,0)" fill="#000000" class="wordmark-text-0" data-fill-palette-color="primary" id="text-0"></path></svg></g></svg></g></svg></g></svg></g><g transform="matrix(1,0,0,1,139.06271880848152,0)"><svg viewBox="0 0 117.39456238303697 135.5501264516129" height="135.5501264516129" width="117.39456238303697"><g><svg xmlns="http://www.w3.org/2000/svg" xmlns:xlink="http://www.w3.org/1999/xlink" version="1.1" x="0" y="0" viewBox="22.584 18.344 54.831999999999994 63.312000000000005" enable-background="new 0 0 100 100" xml:space="preserve" height="135.5501264516129" width="117.39456238303697" class="icon-icon-0" data-fill-palette-color="accent" id="icon-0"><path d="M50 18.344L22.584 34.171V65.829L50 81.656 77.416 65.829V34.171zM71.195 35.199L61.903 40.547 49.993 33.672 37.866 40.672 28.596 35.32 50 22.963zM49.897 47.77L39.85 53.552V44.145L49.943 38.319zM49.993 61.713L41.855 57.014 51.97 51.193 60.127 55.862zM51.916 75.931V65.222L64.136 58.165V43.877L73.416 38.536V63.52z" fill="#000000" data-fill-palette-color="accent"></path></svg></g></svg></g><g></g></svg></g><defs></defs></svg><rect width="380.75251611880014" height="247.2" fill="none" stroke="none" visibility="hidden"></rect></g></svg></g></svg>